<?xml version="1.0" encoding="utf-8"?>
<!-- Generator: Adobe Illustrator 26.3.1, SVG Export Plug-In . SVG Version: 6.00 Build 0)  -->
<svg version="1.1" id="Слой_1" xmlns:svgjs="http://svgjs.com/svgjs"
	 xmlns="http://www.w3.org/2000/svg" xmlns:xlink="http://www.w3.org/1999/xlink" x="0px" y="0px" viewBox="0 0 1631.4 473.4"
	 style="enable-background:new 0 0 1631.4 473.4;" xml:space="preserve">
<style type="text/css">
	.st0{fill:#1C3361;}
</style>
<g>
	<g id="SvgjsG2421" transform="translate(-2.4099953174591064,-95.1149932861328)" xmlns:name="main_text">
		<path class="st0" d="M632.5,243.2c-4,0-7.7,0.8-11.2,2.4c-3.5,1.5-6.7,4.2-9.4,8c-2.8,3.8-5,8.8-6.6,14.9
			c-1.6,6.1-2.5,13.7-2.5,22.6c0,9.3,0.8,17.1,2.5,23.3c1.6,6.2,3.8,11.1,6.6,14.8c2.8,3.6,5.9,6.2,9.4,7.6
			c3.5,1.5,7.3,2.2,11.2,2.2c3.8,0,7.5-0.7,11.2-2.2c3.6-1.5,6.8-4,9.5-7.6c2.8-3.6,5-8.5,6.6-14.8c1.6-6.2,2.4-14,2.4-23.3
			c0-9-0.8-16.5-2.4-22.6c-1.6-6.1-3.8-11.1-6.6-14.9c-2.8-3.8-6-6.5-9.5-8C640,243.9,636.3,243.2,632.5,243.2 M626,209.5
			c-5.5,1.4-10.4,3.2-14.6,5.6c-4.2,2.3-7.8,5.7-10.8,10.1c-3,4.4-5.4,10.1-7.2,17.2c-1.7,7.1-2.9,16-3.6,26.7h1.3
			c3.3-13,8.6-22.2,16-27.9c7.4-5.6,17.6-8.4,30.5-8.4c6.4,0,12.6,1.2,18.5,3.5c5.9,2.3,11.2,5.9,15.8,10.6
			c4.6,4.7,8.2,10.8,10.9,18.1c2.7,7.4,4,16,4,26s-1.4,18.7-4.2,26c-2.7,7.3-6.5,13.4-11.3,18.1c-4.8,4.7-10.6,8.3-17.2,10.6
			c-6.6,2.3-13.8,3.5-21.6,3.5s-15-1.2-21.6-3.5c-6.7-2.3-12.4-6-17.2-11s-8.6-11.4-11.4-19.3c-2.7-7.8-4.1-17.3-4.1-28.4v-10.3
			c0-15.9,0.7-28.9,2-39.2c1.4-10.3,3.5-18.5,6.5-24.8c2.9-6.3,6.8-11.1,11.6-14.3c4.8-3.2,10.6-5.6,17.3-7.2l38.8-9
			c5.9-1.4,10.4-2.8,13.6-4.4c3.2-1.5,5.1-4,5.8-7.3h5.2v16.9c0,6.6-2.6,10.4-7.8,11.7L626,209.5z M745.6,287.2l32.3-45.3
			c3.8-5.2,8.2-9.3,13.3-12.3c5.1-3,11.9-4.5,20.3-4.5h6.5v6.5c-4,0-8,0.8-12.2,2.4c-4.1,1.6-7.8,4.7-11.2,9.2l-28.4,40.2l29.8,37.5
			c4.5,5.9,9.1,10.6,13.8,14.2c4.7,3.6,10,5.9,16,6.8v4.9c-1.4,0.7-3.3,1.3-5.6,1.8c-2.3,0.5-4.8,0.8-7.4,0.8c-6.6,0-13-1.7-19.3-5
			c-6.3-3.3-12.4-8.5-18.2-15.7l-29.8-37.6v55.7h-23.3v-90.6c0-7.8-1.1-14-3.2-18.8c-2.2-4.8-7.1-7.2-14.9-7.2H699v-5.1h23.3
			c4.5,0,8.2,0.4,11.2,1.1c3,0.8,5.4,2.3,7.2,4.7c1.8,2.3,3,5.5,3.8,9.6c0.7,4,1,9.3,1,15.7V287.2z M928.9,285.9
			c0-7.4-0.8-14.3-2.3-20.9c-1.6-6.5-3.8-12.1-6.6-16.8c-2.9-4.7-6.3-8.5-10.3-11.2c-4-2.8-8.4-4.1-13.2-4.2
			c-4.8,0-9.2,1.4-13.2,4.2c-4,2.8-7.4,6.5-10.2,11.2c-2.8,4.7-5,10.3-6.6,16.8c-1.5,6.5-2.3,13.4-2.3,20.9c0,7.4,0.8,14.4,2.3,20.8
			c1.6,6.5,3.8,12.1,6.6,16.8c2.9,4.7,6.3,8.5,10.2,11.2c4,2.8,8.4,4.2,13.2,4.2c4.8,0,9.2-1.4,13.2-4.2s7.4-6.5,10.3-11.2
			c2.8-4.8,5-10.4,6.6-16.8C928.1,300.2,928.9,293.3,928.9,285.9 M839.6,285.9c0-8.8,1.2-17,3.8-24.7c2.5-7.7,6.2-14.4,11.1-20
			c4.9-5.7,10.9-10.2,17.9-13.6c7-3.4,15.1-5.1,24.2-5.1c9,0,17,1.7,24.1,5.1c7.1,3.4,13,7.9,17.9,13.6c4.9,5.7,8.7,12.3,11.2,20
			c2.5,7.7,3.8,15.9,3.8,24.7c0,8.8-1.2,17-3.8,24.7c-2.5,7.7-6.2,14.4-11.2,20c-4.9,5.7-10.9,10.2-17.9,13.6
			c-7.1,3.4-15.1,5.1-24.1,5.1c-9.1,0-17.2-1.7-24.2-5.1c-7-3.4-13-7.9-17.9-13.6c-4.9-5.7-8.6-12.4-11.1-20
			C840.8,302.9,839.6,294.7,839.6,285.9z M1062.5,291.1h-51.8v55.7h-23.3v-90.6c0-7.8-1.1-14-3.2-18.8c-2.2-4.8-7.1-7.2-14.9-7.2
			h-3.9v-5.1h22c4.5,0,8.3,0.4,11.3,1.1c3,0.8,5.4,2.3,7.2,4.7c1.8,2.3,3.1,5.5,3.8,9.6c0.7,4,1,9.3,1,15.7v24.6h51.8v-55.7h23.3
			v90.6c0,7.8,1.1,14,3.2,18.8c2.2,4.7,7.1,7.1,14.9,7.1h3.9v5.2h-22c-4.5,0-8.2-0.4-11.2-1.1c-3-0.8-5.4-2.4-7.2-4.7
			c-1.8-2.3-3.1-5.5-3.8-9.4c-0.7-4-1-9.3-1-15.8V291.1z M1176.9,222.5c9.2,0,16.9,0.7,23.2,2.1c6.3,1.4,11.1,3.7,14.3,7
			c1.6,1.6,2.8,3.3,3.8,5.2c1,1.9,1.6,4.1,2,6.7c0.3,2.6,0.5,5.7,0.7,9.2c0.1,3.5,0.1,7.7,0.1,12.6h-5.2c-0.7-11-4.2-19.2-10.5-24.4
			c-6.3-5.3-14-7.9-23.2-7.9c-6.6,0-12.2,1.4-16.8,4.2c-4.7,2.8-8.5,6.5-11.7,11.2c-3.1,4.7-5.4,10.3-6.8,16.8
			c-1.5,6.5-2.2,13.4-2.2,20.9c0,7.4,0.7,14.4,2.2,20.8s3.8,12.1,6.8,16.8c3.1,4.7,7,8.5,11.7,11.2s10.3,4.2,16.8,4.2
			c9.1,0,16.6-1.8,22.3-5.4c5.7-3.6,10.8-8.7,15.3-15.3l5.2,3.9c-5.9,9.8-12.7,16.8-20.6,21c-7.8,4.1-16.9,6.2-27.3,6.2
			c-9.7,0-18.1-1.7-25.2-5.1c-7.1-3.4-13-7.9-17.7-13.6c-4.7-5.7-8.2-12.4-10.5-20c-2.3-7.7-3.5-15.9-3.5-24.7
			c0-8.8,1.2-17,3.5-24.7c2.3-7.7,5.8-14.4,10.5-20c4.7-5.7,10.6-10.2,17.7-13.6C1158.8,224.1,1167.2,222.5,1176.9,222.5z
			 M1317.2,287.2h-7.8c-12.9,0-23.1,2.4-30.4,7.2c-7.3,4.7-11,11-11,18.8c0,4.1,0.7,7.7,2,10.8c1.4,3.1,3.2,5.7,5.5,7.8
			c2.2,2.1,4.8,3.6,7.8,4.5c2.9,1,6,1.5,9.3,1.5c6.4,0,11.4-1.6,15.1-4.8c3.7-3.2,6.9-6.8,9.4-10.7V287.2 M1327.6,346.7l-9.1-11.6
			h-1.3c-2.6,3.3-6.8,6.5-12.6,9.6c-5.9,3.1-13.7,4.7-23.6,4.7c-3.6,0-7.6-0.6-12-1.7c-4.3-1.1-8.3-3.1-12.1-5.8
			c-3.8-2.8-7-6.5-9.6-11.2c-2.6-4.7-3.9-10.5-3.9-17.6s1.8-12.9,5.5-17.6c3.6-4.7,8.4-8.4,14.5-11.1c6-2.8,13-4.7,21-5.8
			c7.9-1.1,16.3-1.7,25.1-1.7h7.8c0-9-0.7-16.4-2-22.2c-1.4-5.8-3.3-10.3-5.7-13.5c-2.4-3.2-5.3-5.4-8.6-6.6
			c-3.4-1.2-7-1.8-10.8-1.8c-7.3,0-13.4,1.5-18.2,4.6c-4.9,3.1-8.4,8.9-10.3,17.4h-11.6c0-4.5,0.3-8.7,0.8-12.5
			c0.5-3.9,2.4-7.5,5.7-10.7c1.5-1.6,3.7-3,6.6-4.2c2.8-1.2,6-2.2,9.5-2.9c3.4-0.7,7.1-1.2,11-1.5c3.9-0.3,7.8-0.5,11.8-0.5
			c5.9,0,11.5,0.6,16.9,1.9c5.5,1.3,10.3,3.9,14.5,7.8c4.2,3.9,7.6,9.4,10.1,16.5c2.5,7.2,3.8,16.5,3.8,28.1v69.9H1327.6z
			 M1411.7,256.1c0,19.5-1.1,35.3-3.4,47.4c-2.2,12.1-5.2,21.5-8.8,28.4c-3.6,6.8-7.8,11.4-12.5,13.8c-4.6,2.4-9.4,3.7-14.2,3.7
			c-1.4,0-3.5-0.3-6.4-0.8c-2.9-0.5-5-1-6.3-1.5v-6.5c4.1,0,8.2-1.1,12.3-3.2c4.1-2.2,7.7-6.3,10.8-12.3c3.2-6,5.8-14.6,7.7-25.6
			c1.9-11.1,2.8-25.5,2.8-43.2c0-3.8-0.2-7.3-0.7-10.5c-0.4-3.2-1.3-5.9-2.6-8.2c-1.3-2.3-3.2-4.1-5.6-5.4c-2.4-1.2-5.6-1.8-9.6-1.8
			v-5.1h105.1v121.7h-23.3V235.4h-45.5V256.1z M1539.1,235.4c-7.8,0-14.2,2.2-19.4,6.6c-5.2,4.4-7.8,10.8-7.8,19.3h-5.2v-15.5
			c0-2.6,0.3-5.2,0.9-7.6c0.6-2.5,1.6-4.7,3-6.6c1.4-1.9,3.3-3.5,5.8-4.7c2.5-1.2,5.7-1.8,9.7-1.8h91.9v10.4h-42.8v111.3H1552V235.4
			H1539.1z"/>
	</g>
	<g id="SvgjsG2422" transform="translate(-0.7199999690055847,-78.55499572753905)" xmlns:name="slogan_text">
		<path class="st0" d="M585.2,462.8h8c5.2,0,7.9-2.5,7.9-6.1c0-2.9-2.1-4.7-4.2-5.1c1.8-0.7,3-2.4,3-4.7c0-3.3-2.5-5.3-7.1-5.3h-7.7
			V462.8z M588.2,460.3v-7.2h3.7c3.8,0,6,0.9,6,3.7c0,3-2.7,3.6-5.4,3.6H588.2z M588.2,450.8v-6.6h3.7c3,0,5,0.7,5,3.2
			c0,2.1-1.3,3.4-4.4,3.4H588.2z M616.6,463.1c4.2,0,6.3-2.1,7.3-2.8c0.2,1.9,2.2,2.7,4,2.7h0.5l0.2-2.4c-0.9-0.2-2-0.5-2-2.1v-11.7
			c0-4.2-2.8-5.7-7.5-5.7c-3.1,0-5.8,0.9-6.8,1.2l0.7,2.4c0.9-0.3,3.2-1,5.2-1c3.8,0,5.4,0.6,5.4,4v2.8l-5,0.1
			c-3.5,0-8.1,1.2-8.1,6.3C610.6,461,612.8,463.1,616.6,463.1z M617.4,460.7c-2.3,0-3.8-1-3.8-3.8c0-2.1,1.8-3.7,5.1-3.9l5-0.1v5.5
			C623.2,458.7,620.1,460.7,617.4,460.7z M640.4,462.8h26v-21.1h-3v18.6H655v-18.6h-3v18.6h-8.5v-18.6h-3V462.8z M693.4,462.8h3
			v-9.3h11v9.3h3v-21.1h-3v9.3h-11v-9.3h-3V462.8z M727.5,463.1c4.2,0,6.4-2.1,7.4-2.8c0.2,1.9,2.2,2.7,4,2.7h0.5l0.2-2.4
			c-1-0.2-2-0.5-2-2.1v-11.7c0-4.2-2.9-5.7-7.5-5.7c-3.2,0-5.9,0.9-6.8,1.2l0.7,2.4c0.9-0.3,3.2-1,5.2-1c3.8,0,5.4,0.6,5.4,4v2.8
			l-5,0.1c-3.5,0-8.1,1.2-8.1,6.3C721.5,461,723.7,463.1,727.5,463.1z M728.3,460.7c-2.3,0-3.8-1-3.8-3.8c0-2.1,1.8-3.7,5.1-3.9
			l5-0.1v5.5C734.1,458.7,731,460.7,728.3,460.7z M748.2,468.5h2.9v-5.7h16.2v5.7h2.9v-8.2h-3v-18.6h-12.8
			c-0.2,4.9-0.8,10.3-1.3,11.9c-0.8,2.6-1.4,4.4-2.8,6.6h-2.1V468.5z M753.6,460.3c1-2.2,1.7-3.6,2-5.4c0.6-2.2,1-5.7,1.4-10.7h7v16
			H753.6z M789.4,463.3c3.5,0,6-0.7,6.7-1l-0.6-2.5c-0.9,0.3-3.6,0.9-5.2,0.9c-4.4,0-7.7-1.1-7.8-7.8h14v-1.1c0-7-2.4-10.6-7.6-10.6
			c-5.3,0-9.5,2.9-9.5,11.5C779.4,460.7,783.3,463.3,789.4,463.3z M782.6,450.6c0.3-4.7,2.6-7.1,5.8-7.1c3.3,0,4.9,2.8,4.9,7.1
			H782.6z M832.5,463.1l0.7-2.2c-1.2-0.4-2.9-1.5-4.7-3.9l-3.8-5.2l8-10h-3.5l-8,10.2l5.6,7.3C829.3,462.7,831,463.1,832.5,463.1z
			 M805.6,463.1c1.5,0,3.2-0.4,5.8-3.9l5.6-7.3l-8-10.2h-3.5l8,10l-3.8,5.2c-1.8,2.4-3.6,3.6-4.8,3.9L805.6,463.1z M817.5,462.8h3
			v-21.1h-3V462.8z M843.4,462.8h3v-9.3h10.9v9.3h3v-21.1h-3v9.3h-10.9v-9.3h-3V462.8z M873.4,462.8h8.8c4.1,0,6.6-2.8,6.6-6.6
			c0-4.5-3-6.7-8.2-6.7h-2.8v2.5h2.5c3.2,0,5.4,1.2,5.4,4.1c0,2.6-1.7,4-4.5,4h-4.7v-18.5h-3V462.8z M892,462.8h3.2v-21.1H892V462.8
			z M917,437.8c2.7,0,5-1.4,6.4-3.5l-1.5-1.7c-1.6,1.8-3.2,2.4-4.8,2.4c-1.5,0-3.2-0.6-4.8-2.4l-1.5,1.7
			C912.1,436.4,914.4,437.8,917,437.8z M908.1,462.8h3l10.2-14.3l1.6-2.7l0,2.6v14.4h3v-21.1h-3l-10.2,14.3l-1.6,2.8l0-2.7v-14.4h-3
			V462.8z M952.8,462.8h3.1v-18.6h10.5v18.6h3v-21.1h-16.7V462.8z M986.5,463.1c4.2,0,6.4-2.1,7.4-2.8c0.2,1.9,2.2,2.7,4,2.7h0.5
			l0.2-2.4c-1-0.2-2-0.5-2-2.1v-11.7c0-4.2-2.8-5.7-7.5-5.7c-3.1,0-5.8,0.9-6.8,1.2l0.6,2.4c0.9-0.3,3.3-1,5.2-1
			c3.7,0,5.4,0.6,5.4,4v2.8l-5,0.1c-3.5,0-8,1.2-8,6.3C980.6,461,982.8,463.1,986.5,463.1z M987.3,460.7c-2.3,0-3.9-1-3.9-3.8
			c0-2.1,1.9-3.7,5.1-3.9l5.1-0.1v5.5C993.1,458.7,990,460.7,987.3,460.7z M1010.3,471.3h3v-8.4c1,0.1,2.4,0.3,4.3,0.3
			c5.3,0,10.1-2.8,10.1-11.6c0-6.6-3.1-10.4-8.6-10.4c-2.2,0-4.5,1.2-5.8,2.2v-1.8h-3V471.3z M1017.8,460.7c-2.4,0-3.4-0.3-4.4-0.4
			v-14.4c0.6-0.4,3.1-2,5.2-2c5,0,6.1,4.1,6.1,8.5C1024.7,457.1,1022.4,460.7,1017.8,460.7z M1044,462.8h3v-18.5h7.2v-2.6h-17.4v2.6
			h7.2V462.8z M1064.7,462.8h3v-9.3h10.9v9.3h3.1v-21.1h-3.1v9.3h-10.9v-9.3h-3V462.8z M1103.2,463.3c3.5,0,6-0.7,6.7-1l-0.6-2.5
			c-0.9,0.3-3.7,0.9-5.2,0.9c-4.3,0-7.7-1.1-7.8-7.8h14v-1.1c0-7-2.4-10.6-7.6-10.6c-5.3,0-9.5,2.9-9.5,11.5
			C1093.2,460.7,1097.1,463.3,1103.2,463.3z M1096.4,450.6c0.3-4.7,2.7-7.1,5.8-7.1c3.3,0,4.9,2.8,4.9,7.1H1096.4z M1121.5,471.3
			h3.1v-8.4c1,0.1,2.5,0.3,4.3,0.3c5.3,0,10.1-2.8,10.1-11.6c0-6.6-3.1-10.4-8.6-10.4c-2.2,0-4.4,1.2-5.8,2.2v-1.8h-3.1V471.3z
			 M1128.9,460.7c-2.5,0-3.5-0.3-4.4-0.4v-14.4c0.7-0.4,3.2-2,5.2-2c5.1,0,6.2,4.1,6.2,8.5C1135.9,457.1,1133.5,460.7,1128.9,460.7z
			 M1164.5,462.8h8c5.2,0,7.8-2.5,7.8-6.1c0-2.9-2-4.7-4.2-5.1c1.8-0.7,3.1-2.4,3.1-4.7c0-3.3-2.4-5.3-7.1-5.3h-7.7V462.8z
			 M1167.5,460.3v-7.2h3.6c3.8,0,6.1,0.9,6.1,3.7c0,3-2.7,3.6-5.4,3.6H1167.5z M1167.5,450.8v-6.6h3.7c3.1,0,5,0.7,5,3.2
			c0,2.1-1.3,3.4-4.4,3.4H1167.5z M1205.8,462.8h2.9v-14.1l-0.2-3.5l6,17.6h4.1l6.7-17.5l-0.1,3.4v14.1h3v-21.1h-4.1l-7.4,19
			l-6.6-19h-4.2V462.8z M1241.2,462.8h3.1l10.2-14.3l1.7-2.7l-0.1,2.6v14.4h3.1v-21.1h-3.1l-10.1,14.3l-1.6,2.8l0-2.7v-14.4h-3.1
			V462.8z M1272,471.3h3.1v-8.4c1,0.1,2.5,0.3,4.3,0.3c5.3,0,10.1-2.8,10.1-11.6c0-6.6-3.1-10.4-8.6-10.4c-2.2,0-4.4,1.2-5.8,2.2
			v-1.8h-3.1V471.3z M1279.4,460.7c-2.5,0-3.5-0.3-4.4-0.4v-14.4c0.7-0.4,3.2-2,5.2-2c5,0,6.1,4.1,6.1,8.5
			C1286.4,457.1,1284,460.7,1279.4,460.7z M1309.5,463.3c3.4,0,5.9-0.7,6.6-1l-0.5-2.5c-1,0.3-3.7,0.9-5.2,0.9
			c-4.4,0-7.7-1.1-7.8-7.8h13.9v-1.1c0-7-2.4-10.6-7.6-10.6c-5.3,0-9.4,2.9-9.4,11.5C1299.5,460.7,1303.4,463.3,1309.5,463.3z
			 M1302.7,450.6c0.4-4.7,2.6-7.1,5.8-7.1c3.3,0,4.8,2.8,4.8,7.1H1302.7z M1349.6,463.2c5.5,0,9.7-3.4,9.7-10.9c0-6.5-3.3-9-8.2-9
			c-2.9,0-5.4,1-7.2,2.1c0.2-1.9,0.7-4.8,1.8-6c1.3-1.4,6.7-2.4,12.5-3.5l-0.6-2.8c-6.6,1.4-12,2.5-14,4.6c-2.2,2.2-3,9.1-3,13.2
			C1340.6,459.5,1343.9,463.2,1349.6,463.2z M1349.9,460.7c-4.3,0-6.3-3.4-6.3-10.5c0-0.7,0.1-1.7,0.1-2.4c2.2-1.2,4.2-2.1,6.9-2.1
			c4.2,0,5.7,2.9,5.7,6.7C1356.3,456.4,1354.9,460.7,1349.9,460.7z M1373.3,471.3h2.9l10.3-29.6h-3.2l-5.2,15.1l-1.2,3.7l-1.2-3.8
			l-4.6-15h-3.3l6.8,21.1h1.4L1373.3,471.3z M1393.8,462.8h3.6l5.4-8.6l5.5,8.6h3.7l-7.3-10.9l6.8-10.2h-3.4l-5.2,8.2l-5.1-8.2h-3.5
			l6.9,10.3L1393.8,462.8z M1422.1,462.8h3v-18.5h10.1v-2.6h-13.1V462.8z M1450.1,463.1c4.2,0,6.4-2.1,7.3-2.8
			c0.3,1.9,2.2,2.7,4,2.7h0.5l0.2-2.4c-0.9-0.2-1.9-0.5-1.9-2.1v-11.7c0-4.2-2.9-5.7-7.5-5.7c-3.2,0-5.9,0.9-6.8,1.2l0.7,2.4
			c0.9-0.3,3.2-1,5.2-1c3.8,0,5.4,0.6,5.4,4v2.8l-5,0.1c-3.4,0-8.1,1.2-8.1,6.3C1444.1,461,1446.3,463.1,1450.1,463.1z
			 M1450.9,460.7c-2.3,0-3.8-1-3.8-3.8c0-2.1,1.8-3.7,5.1-3.9l5-0.1v5.5C1456.6,458.7,1453.5,460.7,1450.9,460.7z M1471.5,463.5
			c2.6-0.8,4.2-2.1,5.4-4.3c1.4-2.8,2.1-7.4,2.6-14.9h6.8v18.6h3v-21.1h-12.6c-0.2,7.2-1,13.3-2.3,15.9c-1,1.8-2.5,2.6-4,3.2
			L1471.5,463.5z M1507,462.8h3v-18.5h7.2v-2.6h-17.4v2.6h7.2V462.8z M1536.2,463.3c3.4,0,6-0.7,6.7-1l-0.5-2.5
			c-0.9,0.3-3.7,0.9-5.2,0.9c-4.4,0-7.7-1.1-7.8-7.8h14v-1.1c0-7-2.4-10.6-7.6-10.6c-5.3,0-9.5,2.9-9.5,11.5
			C1526.2,460.7,1530,463.3,1536.2,463.3z M1529.3,450.6c0.3-4.7,2.7-7.1,5.8-7.1c3.3,0,4.9,2.8,4.9,7.1H1529.3z M1554.4,471.3h3
			v-8.4c1.1,0.1,2.5,0.3,4.3,0.3c5.3,0,10.2-2.8,10.2-11.6c0-6.6-3.1-10.4-8.6-10.4c-2.3,0-4.5,1.2-5.9,2.2v-1.8h-3V471.3z
			 M1561.9,460.7c-2.4,0-3.5-0.3-4.4-0.4v-14.4c0.7-0.4,3.2-2,5.2-2c5,0,6.1,4.1,6.1,8.5C1568.8,457.1,1566.5,460.7,1561.9,460.7z
			 M1583.5,462.8h3.1l10.2-14.3l1.7-2.7l-0.1,2.6v14.4h3.1v-21.1h-3.1l-10.2,14.3l-1.6,2.8l0.1-2.7v-14.4h-3.1V462.8z M1614.3,462.8
			h3.1l10.2-14.3l1.7-2.7l-0.1,2.6v14.4h3.1v-21.1h-3.1l-10.2,14.3l-1.7,2.8l0.1-2.7v-14.4h-3.1V462.8z"/>
	</g>
	<g id="SvgjsG2423" transform="translate(53.49000244140625,-3.8625999450683595) scale(0.2)" xmlns:name="symbol_mainfill">
		<path class="st0" d="M162.2,661.5l141.6,81.6c-56.4,109.5-91.3,231.7-91.3,363.1c0,441.1,358.9,800,800,800s800-358.9,800-800h160
			c0,530.2-429.8,960-960,960c-530.3,0-960-429.8-960-960C52.5,945.6,92.5,794.5,162.2,661.5z M1012.5,2226.2
			c-617.5,0-1120-502.5-1120-1120c0-399.4,210.9-749.7,526.6-948.1L338.8,19.3C-24.6,245.1-267.5,646.8-267.5,1106.2
			c0,706.9,573.1,1280,1280,1280s1280-573.1,1280-1280h-160C2132.6,1723.7,1630.1,2226.2,1012.5,2226.2z M1492.6,1106.2
			c0,264.7-215.3,480-480,480s-480-215.3-480-480h-160c0,353.4,286.6,640,640,640s640-286.6,640-640H1492.6L1492.6,1106.2z"/>
	</g>
</g>
</svg>
